<svg xmlns="http://www.w3.org/2000/svg" data-name="Layer 1" viewBox="0 0 512 512"><rect width="311.42" height="218.94" x="92.79" y="213.41" fill="#227fc0" rx="30"/><path fill="#2370b5" d="M374.21,213.41h-30a30,30,0,0,1,30,30V402.35a30,30,0,0,1-30,30h30a30,30,0,0,0,30-30V243.41A30,30,0,0,0,374.21,213.41Z"/><rect width="68.09" height="27.62" x="294.68" y="254.84" fill="#f8be32" rx="4"/><path fill="#eab234" d="M358.77,254.84h-15a4,4,0,0,1,4,4v19.63a4,4,0,0,1-4,4h15a4,4,0,0,0,4-4V258.84A4,4,0,0,0,358.77,254.84Z"/><rect width="60.43" height="44.03" x="134.23" y="254.84" fill="#fed030" rx="4"/><path fill="#f8be32" d="M190.66,254.84h-15a4,4,0,0,1,4,4v36a4,4,0,0,1-4,4h15a4,4,0,0,0,4-4v-36A4,4,0,0,0,190.66,254.84Z"/><path fill="#fff" d="M277.53 369.93H134.23a7.5 7.5 0 1 1 0-15h143.3a7.5 7.5 0 0 1 0 15zM217.53 399.93h-83.3a7.5 7.5 0 1 1 0-15h83.3a7.5 7.5 0 1 1 0 15z"/><path fill="#f8be32" d="M347.81,362.5a14.9,14.9,0,0,0-7.5,2,15,15,0,1,0,0,25.87,15,15,0,1,0,7.5-27.9Z"/><path fill="#d7a637" d="M327.6 391.48q-.68-.25-1.32-.57Q326.92 391.23 327.6 391.48zM328.67 391.84l-.63-.2zM330 392.15l-.51-.11zM326.29 364a13.94 13.94 0 0 1 1.31-.56A13.94 13.94 0 0 0 326.29 364zM325.31 364.53h0l.79-.43zM328 363.29l.63-.2zM331.47 392.36l-.38 0zM326.11 390.83c-.27-.14-.54-.28-.8-.43h0C325.57 390.55 325.84 390.69 326.11 390.83zM331.09 362.61l.38 0zM329.48 362.88l.51-.11zM338 391.48l-.43.16zM337 363.09l-.81-.21zM334.15 362.57c-.44 0-.89-.07-1.34-.07C333.26 362.5 333.71 362.53 334.15 362.57zM335.63 362.77c-.36-.07-.73-.12-1.1-.16C334.9 362.65 335.27 362.71 335.63 362.77zM338 363.45l-.45-.16zM339.52 364.1l-.19-.09zM339.51 390.83l-.18.08zM335.62 392.15c-.36.07-.72.13-1.09.17C334.9 392.28 335.27 392.22 335.62 392.15zM347.81 362.5a14.9 14.9 0 0 0-7.5 2h0a14.94 14.94 0 0 1 0 25.87h0a15 15 0 1 0 7.5-27.9zM332.81 392.43c.45 0 .9 0 1.34-.07C333.71 392.4 333.26 392.43 332.81 392.43zM336.94 391.84l-.8.2z"/><path fill="#fff" d="M362.77 340.17h-25a7.5 7.5 0 0 1 0-15h25a7.5 7.5 0 0 1 0 15zM294.92 340.17h-25a7.5 7.5 0 0 1 0-15h25a7.5 7.5 0 0 1 0 15zM227.08 340.17h-25a7.5 7.5 0 1 1 0-15h25a7.5 7.5 0 0 1 0 15zM159.23 340.17h-25a7.5 7.5 0 1 1 0-15h25a7.5 7.5 0 0 1 0 15z"/><path fill="#227fc0" d="M462.75,383.44a7.45,7.45,0,0,1-5.05-2l-28.55-26.06a7.49,7.49,0,0,1,.23-11.27l28.76-24.21a7.5,7.5,0,1,1,9.66,11.48l-22.21,18.69,22.22,20.29a7.5,7.5,0,0,1-5.06,13Z"/><path fill="#f8be32" d="M49,193.82a7.5,7.5,0,0,1-4.83-13.24l22.21-18.69L44.19,141.6A7.5,7.5,0,0,1,54.3,130.52l28.55,26.06a7.49,7.49,0,0,1-.23,11.27L53.86,192.06A7.5,7.5,0,0,1,49,193.82Z"/><path fill="#227fc0" d="M474.5,357.38H434.21a7.5,7.5,0,1,1,0-15H474.5a22.52,22.52,0,0,0,22.5-22.5V166.06a22.53,22.53,0,0,0-22.5-22.5H433a7.5,7.5,0,0,1,0-15H474.5a37.54,37.54,0,0,1,37.5,37.5V319.88A37.54,37.54,0,0,1,474.5,357.38Z"/><path fill="#f8be32" d="M64,383.56h0l-26.59-.06A37.55,37.55,0,0,1,0,346V192.12a37.54,37.54,0,0,1,37.5-37.5H77.79a7.5,7.5,0,1,1,0,15H37.5A22.52,22.52,0,0,0,15,192.12V346a22.53,22.53,0,0,0,22.45,22.5l26.59.06a7.5,7.5,0,0,1,0,15Z"/><path fill="#2370b5" d="M279.39,213.41l-20.9,28.44a14.49,14.49,0,0,1-13.24,5.82l-12.59-1.37q4.77-16.44,9.52-32.89Z"/><path fill="#dadadc" d="M312.46,153.41q-27,36.72-54,73.44a14.49,14.49,0,0,1-13.24,5.82l-12.59-1.37q9.08-31.31,18.14-62.64Z"/><path fill="#dadadc" d="M393.56,127.42a8.27,8.27,0,0,1-6.36,8c-15.12,3.6-49,11.67-74.74,17.94q-27,36.72-54,73.44a14.49,14.49,0,0,1-13.24,5.82l-12.59-1.37q9.08-31.31,18.14-62.64c-23.12,5.81-45.66,11.62-65.21,16.9a28.14,28.14,0,0,1-29-9.2l-38.16-46a16.76,16.76,0,0,1,20-.66l21.35,14.78a28.2,28.2,0,0,0,22.69,4.2L237,135.42a8.85,8.85,0,0,0,5.57-13l-35.2-61.18H223.2a25.81,25.81,0,0,1,14,4.13l73.26,47.26a8.84,8.84,0,0,0,6.44,1.25l45.64-8.68a26.47,26.47,0,0,1,30.83,20.48A8.64,8.64,0,0,1,393.56,127.42Z"/><path fill="#c8c5cc" d="M295.47 112.63a8.84 8.84 0 0 0 6.44 1.25l8.11-1.54-72.81-47a25.81 25.81 0 0 0-14-4.13h-15a25.81 25.81 0 0 1 14 4.13zM123.4 129.73l21.35 14.78a28.2 28.2 0 0 0 22.69 4.2l.88-.21a28.48 28.48 0 0 1-8.57-4L138.4 129.73a16.71 16.71 0 0 0-17-1.2A16.64 16.64 0 0 1 123.4 129.73zM393.38 125.68a26.47 26.47 0 0 0-30.83-20.48l-2.84.54a26.45 26.45 0 0 1 18.67 19.94 8.64 8.64 0 0 1 .18 1.74 8.27 8.27 0 0 1-6.36 8c-15.12 3.6-49 11.67-74.74 17.94q-27 36.72-54 73.44a14.48 14.48 0 0 1-6.46 4.93l8.22.89a14.49 14.49 0 0 0 13.24-5.82q27-36.72 54-73.44c25.74-6.27 59.62-14.34 74.74-17.94a8.27 8.27 0 0 0 6.36-8A8.64 8.64 0 0 0 393.38 125.68zM235.8 168.66c-23 5.79-45.51 11.58-65 16.85a28.08 28.08 0 0 0 14.81.05c14.95-4 31.65-8.39 49-12.81C235 171.39 235.4 170 235.8 168.66z"/></svg>