<svg xmlns="http://www.w3.org/2000/svg" enable-background="new 0 0 258.346 277.637" viewBox="0 0 258.346 277.637"><path d="M155.596,0c-35.278,0-66.399,17.782-84.901,44.868c2.488,2.843,4.406,6.196,5.562,9.886
		C92.534,27.946,122.008,10,155.596,10c51.143,0,92.75,41.474,92.75,92.616c0,15.075-3.618,29.782-10.026,41.782H104.551
		c0.234,4,0.383,7.459,0.442,11.377c3.303,1.241,6.277,2.921,7.943,4.693c1.211,1.287,1.781,2.686,1.694,4.091
		c-0.274,4.452-4.827,8.164-9.23,11.739c-0.282,0.229-0.565,0.468-0.848,0.699c-0.045,0.875-0.088,1.751-0.14,2.639
		c-0.22,3.764-2.039,7.075-4.763,9.303c16.099,10.472,35.311,16.561,55.947,16.561c56.747,0,102.75-46.002,102.75-102.749
		S212.343,0,155.596,0z"/><path d="M167.581 55.398h-23.97l-9.942 24h43.854L167.581 55.398zM146.716 59.848l-6.141 8.751 4.825-11.201h13.044L146.716 59.848zM143.437 84.398h-23.97l-9.942 24h43.854L143.437 84.398zM122.571 89.003l-6.14 8.674 4.825-11.278H134.3L122.571 89.003zM167.755 84.398l-9.942 24h43.854l-9.942-24H167.755zM170.86 89.003l-6.14 8.674 4.825-11.278h13.044L170.86 89.003zM120.277 116.398h-20.41c.196 0 .388 1 .573 2h10.701l-10.104 2.267c1.456 5.837 2.511 11.733 3.168 19.733h26.013L120.277 116.398zM143.61 116.398l-9.939 24h43.851l-9.939-24H143.61zM146.715 120.913l-6.138 8.718 4.823-11.233h13.047L146.715 120.913zM190.914 116.398l-9.939 24h43.851l-9.939-24H190.914zM194.019 120.913l-6.138 8.718 4.823-11.233h13.047L194.019 120.913zM106.509 82.398h.546c1.008-12 4.963-16.053 16.963-17.06v-.547c-12-1.007-15.955-4.393-16.963-16.393h-.546c-1.008 12-4.491 15.386-16.491 16.393v.547C102.018 66.345 105.501 70.398 106.509 82.398zM222.21 101.398h.546c1.008-12 4.263-15.312 16.263-16.32v-.547c-12-1.007-15.255-4.133-16.263-17.133h-.546c-1.008 13-4.191 16.127-17.191 17.133v.547C218.018 86.086 221.202 89.398 222.21 101.398zM177.219 55.398h.546c1.008-12 4.253-15.356 16.253-16.364v-.547c-12-1.006-15.245-5.089-16.253-17.089h-.546c-1.008 12-4.201 16.083-17.201 17.089v.547C173.018 40.042 176.211 43.398 177.219 55.398zM45.599 264.692l2.419-2.694v-3.853c-2-9.382-4-26.873 0-36.273v-41.869-4.604h4v4.604 34.226c5-6.097 10.192-10.487 15.172-14.475 1.664-1.332 3.295-2.591 4.8-3.88 1.686-1.445 3.028-2.628 5.028-3.681v-14.828-.74c-1-.981-2.617-1.948-3.866-2.85-6.883-4.975-11.116-8.206-11.567-11.793-.163-1.295.201-2.514 1.043-3.525 1.08-1.297 2.796-1.954 5.127-1.954 2.621 0 6.263.794 9.263 1.745v-9.912-33.087c5 9.298 8.469 28.029 6.413 63.166-.258 4.411 3.117 8.196 7.528 8.454.159.009.321.014.479.014 4.204 0 7.732-3.281 7.981-7.533 2.472-42.248-2.811-69.811-15.704-81.925-5.617-5.278-11.104-6.058-13.917-6.123-.158-.01-.314.099-.475.099H30.689c-.161 0-.318-.108-.477-.099-2.461.057-6.969.712-11.823 4.422-.693.53-1.391 1.071-2.093 1.73C3.404 109.566-1.88 137.115.591 179.363c.249 4.252 3.774 7.527 7.979 7.526.157 0 .316-.008.475-.018 4.411-.258 7.777-4.045 7.519-8.455-1.184-20.235-.336-35.026 1.425-45.712 1.297-7.871 3.029-13.514 5.029-17.458v33.089 18.94 10.09 87.91c0 6.83 5.508 12.363 12.334 12.363 3.715 0 7.107-1.646 9.374-4.239C43.213 270.688 43.493 267.211 45.599 264.692zM57.259 274.582c-.097.116-.204.219-.307.328 2.119 1.703 4.806 2.727 7.735 2.727 2.113 0 4.101-.532 5.841-1.466-4.475-1.197-8.177-2.706-11.098-4.183L57.259 274.582z"/><circle cx="50.006" cy="62.954" r="22.5"/><path d="M94.986 188.54c-1.108.408-2.299.64-3.543.64-.203 0-.404-.005-.608-.018-1.544-.09-3.01-.526-4.327-1.245-1.878 3.275-7.495 5.329-12.787 9.865-7.653 6.559-17.31 12.572-23.323 24.234-5.23 10.142-.675 33.921.601 39.945l-3.634 4.344c-1.833 2.191-1.539 5.482.651 7.315 2.19 1.833 5.482 1.54 7.315-.651l3.478-4.157c6.487 3.628 17.309 7.648 32.95 7.136 14.418-.471 23.415-3.671 28.753-6.651l3.757 4.491c1.833 2.191 5.125 2.484 7.315.651 2.191-1.833 2.484-5.124.651-7.315l-4.115-4.919c2.878-6.217 11.797-28.054 2.813-42.923-10.568-17.492-25.236-21.5-31.249-26.42C97.258 190.877 95.743 189.664 94.986 188.54zM103.306 219.067l-5.353 3.657c-2.076-1.99-4.175-2.797-6.945-2.797-3.46 0-5.625 1.56-5.625 4.087 0 1.399.686 2.689 1.994 3.657 1.153.86 1.689 1.13 6.072 3.227 8.229 4.034 10.859 6.777 10.859 11.563 0 5.325-4.29 8.767-11.29 9.412v4.525h-4v-4.525c-5-.377-8.514-2.151-11.666-5.11l5.241-3.495c3.306 2.851 5.35 3.764 8.58 3.764 3.307 0 5.368-1.667 5.368-4.302 0-1.452-.778-2.851-2.085-3.926-1.308-1.022-2.081-1.452-6.618-3.711-7.536-3.765-9.792-6.346-9.792-10.703 0-4.947 3.973-8.605 10.973-9.304v-3.689h4v3.689C97.018 215.41 100.307 216.7 103.306 219.067zM101.907 175.925c4.569-3.802 9.975-7.605 10.214-11.487.15-2.44-4.579-5.14-9.829-6.824C102.351 163.368 102.223 169.473 101.907 175.925zM81.237 176.707c.281-5.202.43-10.032.459-14.497-6.55-1.864-14.941-4.774-17.132-2.145C61.464 163.785 73.678 170.475 81.237 176.707z"/></svg>